<svg width="200" height="49" viewBox="0 0 200 49" fill="none" xmlns="http://www.w3.org/2000/svg">
<path d="M2.01702 44.2675L21.148 32.4985L33.4553 46.7341L53.7508 6.35637L34.6198 18.1253L22.3125 3.88978L2.01702 44.2675Z" fill="#3A45E9" fill-opacity="0.4"/>
<path d="M22.2177 0.38497C22.5777 0.340785 22.943 0.386199 23.2813 0.51718C23.6195 0.648161 23.9202 0.860655 24.1566 1.13578L35.2367 13.9494L52.7732 3.16324C53.1815 2.91486 53.6595 2.80601 54.135 2.85313C54.6106 2.90024 55.0579 3.10075 55.4096 3.42441C55.7612 3.74806 55.998 4.1773 56.0842 4.64734C56.1705 5.11739 56.1015 5.60273 55.8877 6.03015L35.5923 46.4078C35.4316 46.7342 35.1926 47.0158 34.8966 47.2272C34.6006 47.4387 34.2567 47.5736 33.8959 47.6198C33.535 47.666 33.1683 47.6221 32.8286 47.492C32.4888 47.3619 32.1866 47.1496 31.9489 46.8742L20.8669 34.0554L3.3472 44.8236C2.93892 45.072 2.46093 45.1808 1.98537 45.1337C1.5098 45.0866 1.06246 44.8861 0.710853 44.5624C0.359243 44.2388 0.122438 43.8096 0.0361782 43.3395C-0.050082 42.8695 0.0188834 42.3841 0.232662 41.9567L20.5281 1.57902C20.6904 1.25684 20.9294 0.979467 21.224 0.771266C21.5186 0.563064 21.8598 0.430414 22.2177 0.38497ZM7.63093 37.0143L20.1575 29.3102C20.6014 29.036 21.1283 28.9284 21.6441 29.0065C22.16 29.0845 22.6314 29.3432 22.9744 29.7364L33.1447 41.4863L48.4775 10.9799L35.95 18.6815C35.5061 18.9556 34.9792 19.0632 34.4633 18.9851C33.9475 18.9071 33.4761 18.6484 33.1331 18.2552L22.9795 6.51092L7.63093 37.0143Z" fill="#2C35B5"/>
<path d="M72.8817 0L79.7957 39.0938H80.3348L100.139 0H107.968L82.7254 48H74.3582L65.0535 0H72.8817Z" fill="#2C35B5"/>
<path d="M113.467 48.7266C110.045 48.7266 107.185 47.9453 104.889 46.3828C102.592 44.8047 100.975 42.6016 100.037 39.7734C99.1152 36.9297 98.9589 33.625 99.5683 29.8594C100.162 26.1719 101.357 22.9531 103.154 20.2031C104.967 17.4531 107.232 15.3203 109.951 13.8047C112.685 12.2891 115.725 11.5313 119.068 11.5313C122.49 11.5313 125.342 12.3203 127.623 13.8984C129.92 15.4766 131.537 17.6875 132.475 20.5313C133.412 23.375 133.576 26.6875 132.967 30.4688C132.373 34.125 131.162 37.3281 129.334 40.0781C127.521 42.8125 125.256 44.9375 122.537 46.4531C119.818 47.9688 116.795 48.7266 113.467 48.7266ZM113.865 42.8438C116.115 42.8438 118.076 42.25 119.748 41.0625C121.435 39.875 122.81 38.2969 123.873 36.3281C124.935 34.3594 125.662 32.2031 126.053 29.8594C126.412 27.5938 126.404 25.5234 126.029 23.6484C125.67 21.7578 124.889 20.2422 123.685 19.1016C122.482 17.9609 120.81 17.3906 118.67 17.3906C116.42 17.3906 114.443 17.9922 112.74 19.1953C111.053 20.3828 109.678 21.9688 108.615 23.9531C107.568 25.9375 106.857 28.1016 106.482 30.4453C106.123 32.6953 106.123 34.7656 106.482 36.6562C106.842 38.5312 107.623 40.0312 108.826 41.1562C110.029 42.2813 111.709 42.8438 113.865 42.8438Z" fill="#2C35B5"/>
<path d="M141.255 0H148.263L141.958 38.1562C141.708 39.6875 141.716 40.7812 141.982 41.4375C142.263 42.0938 142.966 42.3984 144.091 42.3516C144.732 42.3203 145.208 42.2813 145.521 42.2344C145.833 42.1719 146.114 42.1016 146.364 42.0234L146.763 47.625C146.232 47.7813 145.583 47.9219 144.817 48.0469C144.067 48.1719 143.224 48.2422 142.286 48.2578C139.239 48.3047 137.091 47.5938 135.841 46.125C134.607 44.6406 134.224 42.4688 134.692 39.6094L141.255 0Z" fill="#2C35B5"/>
<path d="M169.453 12L168.539 17.625H148.875L149.789 12H169.453ZM156.469 3.375H163.477L157.805 37.4297C157.586 38.7891 157.625 39.8125 157.922 40.5C158.219 41.1719 158.672 41.6328 159.281 41.8828C159.906 42.1172 160.602 42.2344 161.367 42.2344C161.93 42.2344 162.422 42.1953 162.844 42.1172C163.266 42.0391 163.602 41.9766 163.852 41.9297L164.227 47.7188C163.758 47.875 163.125 48.0312 162.328 48.1875C161.547 48.3594 160.594 48.4531 159.469 48.4688C157.625 48.5 155.961 48.1719 154.477 47.4844C152.992 46.7812 151.883 45.7188 151.149 44.2969C150.414 42.8594 150.235 41.0547 150.61 38.8828L156.469 3.375Z" fill="#2C35B5"/>
<path d="M176.968 48.7969C174.687 48.7969 172.695 48.375 170.991 47.5312C169.288 46.6719 168.031 45.4297 167.218 43.8047C166.406 42.1797 166.195 40.1875 166.585 37.8281C166.929 35.7969 167.601 34.125 168.601 32.8125C169.616 31.5 170.851 30.4609 172.304 29.6953C173.757 28.9141 175.335 28.3281 177.038 27.9375C178.741 27.5469 180.46 27.2578 182.195 27.0703C184.382 26.8203 186.156 26.6094 187.515 26.4375C188.89 26.2656 189.921 26 190.609 25.6406C191.296 25.2656 191.71 24.6563 191.851 23.8125V23.6484C192.179 21.6172 191.882 20.0391 190.96 18.9141C190.054 17.7734 188.476 17.2031 186.226 17.2031C183.882 17.2031 181.913 17.7188 180.32 18.75C178.741 19.7812 177.577 20.9375 176.827 22.2188L170.546 20.7188C171.671 18.5313 173.101 16.7656 174.835 15.4219C176.585 14.0625 178.499 13.0781 180.577 12.4687C182.656 11.8438 184.781 11.5313 186.952 11.5313C188.39 11.5313 189.882 11.7031 191.429 12.0469C192.976 12.375 194.382 12.9844 195.648 13.875C196.929 14.7656 197.882 16.0391 198.507 17.6953C199.132 19.3359 199.226 21.4688 198.788 24.0938L194.827 48H187.984L188.827 43.0781H188.546C187.952 43.9844 187.124 44.875 186.062 45.75C185.015 46.625 183.734 47.3516 182.218 47.9297C180.702 48.5078 178.952 48.7969 176.968 48.7969ZM179.359 43.1719C181.312 43.1719 183.038 42.7891 184.538 42.0234C186.054 41.2578 187.281 40.2578 188.218 39.0234C189.156 37.7734 189.741 36.4375 189.976 35.0156L190.749 30.375C190.452 30.625 189.929 30.8516 189.179 31.0547C188.445 31.2578 187.616 31.4375 186.695 31.5938C185.773 31.75 184.866 31.8828 183.976 31.9922C183.101 32.1016 182.374 32.2031 181.796 32.2969C180.421 32.4688 179.132 32.7578 177.929 33.1641C176.741 33.5703 175.749 34.1563 174.952 34.9219C174.156 35.6719 173.656 36.6719 173.452 37.9219C173.171 39.6563 173.585 40.9688 174.695 41.8594C175.82 42.7344 177.374 43.1719 179.359 43.1719Z" fill="#2C35B5"/>
</svg>
