<svg width="152" height="36" viewBox="0 0 152 36" fill="none" xmlns="http://www.w3.org/2000/svg">
<path fill-rule="evenodd" clip-rule="evenodd" d="M9.00739 2.25V36H0V2.25H9.00739Z" fill="#2C35B5"/>
<path fill-rule="evenodd" clip-rule="evenodd" d="M13.5117 2.25H32.6525C38.8708 2.25 43.9117 7.2868 43.9117 13.5C43.9117 19.7132 38.8708 24.75 32.6525 24.75H22.5191V36H13.5117V2.25ZM22.5191 15.75H32.6525C33.8962 15.75 34.9043 14.7426 34.9043 13.5C34.9043 12.2574 33.8962 11.25 32.6525 11.25H22.5191V15.75Z" fill="#2C35B5"/>
<path fill-rule="evenodd" clip-rule="evenodd" d="M77.689 2.25V19.6875C77.689 23.7261 80.9656 27 85.0075 27C89.0495 27 92.3262 23.7261 92.3262 19.6875V2.25H101.334V19.6875C101.334 28.6967 94.0243 36 85.0075 36C75.991 36 68.6816 28.6967 68.6816 19.6875V2.25H77.689Z" fill="#2C35B5"/>
<path fill-rule="evenodd" clip-rule="evenodd" d="M47.2886 18C47.2886 9.3015 54.3459 2.25 63.0516 2.25H65.3034V11.25H63.0516C59.3206 11.25 56.296 14.2721 56.296 18V19.125C56.296 28.4448 48.7346 36 39.4071 36H38.2812V27H39.4071C43.76 27 47.2886 23.4742 47.2886 19.125V18Z" fill="#2C35B5"/>
<path d="M152 3.375C152 5.23896 150.488 6.75 148.621 6.75C146.756 6.75 145.244 5.23896 145.244 3.375C145.244 1.51104 146.756 0 148.621 0C150.488 0 152 1.51104 152 3.375Z" fill="#2C35B5"/>
<path d="M111.004 36L115.303 18.0163L118.498 28.8354C120.403 35.2882 129.551 35.2882 131.457 28.8354L134.652 18.0163L138.95 36H148.21L141.452 7.72158C139.845 0.996738 130.361 0.747745 128.402 7.37906L124.978 18.975L121.553 7.37907C119.595 0.747784 110.11 0.996703 108.502 7.72157L101.744 36H111.004Z" fill="#2C35B5"/>
</svg>
