<svg width="200" height="50" viewBox="0 0 200 50" fill="none" xmlns="http://www.w3.org/2000/svg">
<path d="M2.01702 44.8612L21.148 33.0923L33.4553 47.3278L53.7508 6.95012L34.6198 18.7191L22.3125 4.48353L2.01702 44.8612Z" fill="white" fill-opacity="0.3"/>
<path d="M22.2177 0.97872C22.5777 0.934535 22.943 0.979949 23.2813 1.11093C23.6195 1.24191 23.9202 1.4544 24.1566 1.72953L35.2367 14.5432L52.7732 3.75699C53.1815 3.50861 53.6595 3.39976 54.135 3.44688C54.6106 3.49399 55.0579 3.6945 55.4095 4.01816C55.7612 4.34181 55.998 4.77105 56.0842 5.24109C56.1705 5.71114 56.1015 6.19648 55.8877 6.6239L35.5923 47.0016C35.4316 47.328 35.1926 47.6095 34.8966 47.821C34.6006 48.0325 34.2567 48.1673 33.8959 48.2135C33.535 48.2597 33.1683 48.2158 32.8286 48.0857C32.4888 47.9556 32.1866 47.7434 31.9489 47.468L20.8669 34.6492L3.3472 45.4174C2.93892 45.6657 2.46093 45.7746 1.98537 45.7275C1.5098 45.6804 1.06246 45.4799 0.710853 45.1562C0.359243 44.8325 0.122438 44.4033 0.0361782 43.9333C-0.050082 43.4632 0.0188834 42.9779 0.232662 42.5505L20.5281 2.17277C20.6904 1.85059 20.9294 1.57322 21.224 1.36502C21.5186 1.15681 21.8598 1.02416 22.2177 0.97872ZM7.63093 37.6081L20.1575 29.9039C20.6014 29.6298 21.1283 29.5222 21.6441 29.6002C22.16 29.6783 22.6314 29.937 22.9744 30.3301L33.1447 42.08L48.4775 11.5736L35.95 19.2752C35.5061 19.5493 34.9792 19.657 34.4633 19.5789C33.9475 19.5008 33.4761 19.2422 33.1331 18.849L22.9795 7.10467L7.63093 37.6081Z" fill="white"/>
<path d="M72.8817 0.59375L79.7957 39.6875H80.3348L100.139 0.59375H107.968L82.7254 48.5938H74.3582L65.0535 0.59375H72.8817Z" fill="white"/>
<path d="M113.467 49.3203C110.045 49.3203 107.185 48.5391 104.889 46.9766C102.592 45.3984 100.975 43.1953 100.037 40.3672C99.1152 37.5234 98.9589 34.2188 99.5683 30.4531C100.162 26.7656 101.357 23.5469 103.154 20.7969C104.967 18.0469 107.232 15.9141 109.951 14.3984C112.685 12.8828 115.725 12.125 119.068 12.125C122.49 12.125 125.342 12.9141 127.623 14.4922C129.92 16.0703 131.537 18.2813 132.475 21.125C133.412 23.9688 133.576 27.2812 132.967 31.0625C132.373 34.7187 131.162 37.9219 129.334 40.6719C127.521 43.4062 125.256 45.5312 122.537 47.0469C119.818 48.5625 116.795 49.3203 113.467 49.3203ZM113.865 43.4375C116.115 43.4375 118.076 42.8438 119.748 41.6562C121.435 40.4687 122.81 38.8906 123.873 36.9219C124.935 34.9531 125.662 32.7969 126.053 30.4531C126.412 28.1875 126.404 26.1172 126.029 24.2422C125.67 22.3516 124.889 20.8359 123.685 19.6953C122.482 18.5547 120.81 17.9844 118.67 17.9844C116.42 17.9844 114.443 18.5859 112.74 19.7891C111.053 20.9766 109.678 22.5625 108.615 24.5469C107.568 26.5313 106.857 28.6953 106.482 31.0391C106.123 33.2891 106.123 35.3594 106.482 37.25C106.842 39.125 107.623 40.625 108.826 41.75C110.029 42.875 111.709 43.4375 113.865 43.4375Z" fill="white"/>
<path d="M141.255 0.59375H148.263L141.958 38.75C141.708 40.2813 141.716 41.375 141.982 42.0312C142.263 42.6875 142.966 42.9922 144.091 42.9453C144.732 42.9141 145.208 42.875 145.521 42.8281C145.833 42.7656 146.114 42.6953 146.364 42.6172L146.763 48.2188C146.232 48.375 145.583 48.5156 144.817 48.6406C144.067 48.7656 143.224 48.8359 142.286 48.8516C139.239 48.8984 137.091 48.1875 135.841 46.7188C134.607 45.2344 134.224 43.0625 134.692 40.2031L141.255 0.59375Z" fill="white"/>
<path d="M169.453 12.5938L168.539 18.2188H148.875L149.789 12.5938H169.453ZM156.469 3.96875H163.477L157.805 38.0234C157.586 39.3828 157.625 40.4062 157.922 41.0938C158.219 41.7656 158.672 42.2266 159.281 42.4766C159.906 42.7109 160.602 42.8281 161.367 42.8281C161.93 42.8281 162.422 42.7891 162.844 42.7109C163.266 42.6328 163.602 42.5703 163.852 42.5234L164.227 48.3125C163.758 48.4688 163.125 48.625 162.328 48.7812C161.547 48.9531 160.594 49.0469 159.469 49.0625C157.625 49.0937 155.961 48.7656 154.477 48.0781C152.992 47.375 151.883 46.3125 151.149 44.8906C150.414 43.4531 150.235 41.6484 150.61 39.4766L156.469 3.96875Z" fill="white"/>
<path d="M176.968 49.3906C174.687 49.3906 172.695 48.9688 170.992 48.125C169.288 47.2656 168.031 46.0234 167.218 44.3984C166.406 42.7734 166.195 40.7812 166.585 38.4219C166.929 36.3906 167.601 34.7188 168.601 33.4062C169.617 32.0937 170.851 31.0547 172.304 30.2891C173.757 29.5078 175.335 28.9219 177.038 28.5312C178.742 28.1406 180.46 27.8516 182.195 27.6641C184.382 27.4141 186.156 27.2031 187.515 27.0312C188.89 26.8594 189.921 26.5938 190.609 26.2344C191.296 25.8594 191.71 25.25 191.851 24.4063V24.2422C192.179 22.2109 191.882 20.6328 190.96 19.5078C190.054 18.3672 188.476 17.7969 186.226 17.7969C183.882 17.7969 181.913 18.3125 180.32 19.3438C178.742 20.375 177.577 21.5313 176.827 22.8125L170.546 21.3125C171.671 19.125 173.101 17.3594 174.835 16.0156C176.585 14.6562 178.499 13.6719 180.577 13.0625C182.656 12.4375 184.781 12.125 186.952 12.125C188.39 12.125 189.882 12.2969 191.429 12.6406C192.976 12.9688 194.382 13.5781 195.648 14.4687C196.929 15.3594 197.882 16.6328 198.507 18.2891C199.132 19.9297 199.226 22.0625 198.788 24.6875L194.827 48.5938H187.984L188.827 43.6719H188.546C187.952 44.5781 187.124 45.4688 186.062 46.3438C185.015 47.2188 183.734 47.9453 182.218 48.5234C180.702 49.1016 178.952 49.3906 176.968 49.3906ZM179.359 43.7656C181.312 43.7656 183.038 43.3828 184.538 42.6172C186.054 41.8516 187.281 40.8516 188.218 39.6172C189.156 38.3672 189.742 37.0313 189.976 35.6094L190.749 30.9688C190.452 31.2187 189.929 31.4453 189.179 31.6484C188.445 31.8516 187.617 32.0312 186.695 32.1875C185.773 32.3437 184.867 32.4766 183.976 32.5859C183.101 32.6953 182.374 32.7969 181.796 32.8906C180.421 33.0625 179.132 33.3516 177.929 33.7578C176.742 34.1641 175.749 34.75 174.952 35.5156C174.156 36.2656 173.656 37.2656 173.452 38.5156C173.171 40.25 173.585 41.5625 174.695 42.4531C175.82 43.3281 177.374 43.7656 179.359 43.7656Z" fill="white"/>
</svg>
