<svg width="200" height="50" viewBox="0 0 200 50" fill="none" xmlns="http://www.w3.org/2000/svg">
<path d="M2.01702 45.0644L21.148 33.2954L33.4553 47.5309L53.7508 7.15325L34.6198 18.9222L22.3125 4.68665L2.01702 45.0644Z" fill="black" fill-opacity="0.3"/>
<path d="M22.2177 1.18184C22.5777 1.13766 22.943 1.18307 23.2813 1.31405C23.6195 1.44504 23.9202 1.65753 24.1566 1.93266L35.2367 14.7463L52.7732 3.96011C53.1815 3.71174 53.6595 3.60289 54.135 3.65C54.6106 3.69711 55.0579 3.89763 55.4096 4.22128C55.7612 4.54494 55.998 4.97417 56.0842 5.44422C56.1705 5.91426 56.1015 6.39961 55.8877 6.82702L35.5923 47.2047C35.4316 47.5311 35.1926 47.8126 34.8966 48.0241C34.6006 48.2356 34.2567 48.3705 33.8959 48.4167C33.535 48.4629 33.1683 48.4189 32.8286 48.2888C32.4888 48.1587 32.1866 47.9465 31.9489 47.6711L20.8669 34.8523L3.3472 45.6205C2.93892 45.8689 2.46093 45.9777 1.98537 45.9306C1.5098 45.8835 1.06246 45.683 0.710853 45.3593C0.359243 45.0357 0.122438 44.6064 0.0361782 44.1364C-0.050082 43.6663 0.0188834 43.181 0.232662 42.7536L20.5281 2.37589C20.6904 2.05372 20.9294 1.77634 21.224 1.56814C21.5186 1.35994 21.8598 1.22729 22.2177 1.18184ZM7.63093 37.8112L20.1575 30.107C20.6014 29.8329 21.1283 29.7253 21.6441 29.8034C22.16 29.8814 22.6314 30.1401 22.9744 30.5333L33.1447 42.2831L48.4775 11.7768L35.95 19.4784C35.5061 19.7525 34.9792 19.8601 34.4633 19.782C33.9475 19.704 33.4761 19.4453 33.1331 19.0521L22.9795 7.30779L7.63093 37.8112Z" fill="#1F1F1F"/>
<path d="M72.8817 0.796875L79.7957 39.8906H80.3348L100.139 0.796875H107.968L82.7254 48.7969H74.3582L65.0535 0.796875H72.8817Z" fill="#1F1F1F"/>
<path d="M113.467 49.5234C110.045 49.5234 107.185 48.7422 104.889 47.1797C102.592 45.6016 100.975 43.3984 100.037 40.5703C99.1152 37.7266 98.9589 34.4219 99.5683 30.6562C100.162 26.9688 101.357 23.75 103.154 21C104.967 18.25 107.232 16.1172 109.951 14.6016C112.685 13.0859 115.725 12.3281 119.068 12.3281C122.49 12.3281 125.342 13.1172 127.623 14.6953C129.92 16.2734 131.537 18.4844 132.475 21.3281C133.412 24.1719 133.576 27.4844 132.967 31.2656C132.373 34.9219 131.162 38.125 129.334 40.875C127.521 43.6094 125.256 45.7344 122.537 47.25C119.818 48.7656 116.795 49.5234 113.467 49.5234ZM113.865 43.6406C116.115 43.6406 118.076 43.0469 119.748 41.8594C121.435 40.6719 122.81 39.0937 123.873 37.125C124.935 35.1562 125.662 33 126.053 30.6562C126.412 28.3906 126.404 26.3203 126.029 24.4453C125.67 22.5547 124.889 21.0391 123.685 19.8984C122.482 18.7578 120.81 18.1875 118.67 18.1875C116.42 18.1875 114.443 18.7891 112.74 19.9922C111.053 21.1797 109.678 22.7656 108.615 24.75C107.568 26.7344 106.857 28.8984 106.482 31.2422C106.123 33.4922 106.123 35.5625 106.482 37.4531C106.842 39.3281 107.623 40.8281 108.826 41.9531C110.029 43.0781 111.709 43.6406 113.865 43.6406Z" fill="#1F1F1F"/>
<path d="M141.255 0.796875H148.263L141.958 38.9531C141.708 40.4844 141.716 41.5781 141.982 42.2344C142.263 42.8906 142.966 43.1953 144.091 43.1484C144.732 43.1172 145.208 43.0781 145.521 43.0312C145.833 42.9688 146.114 42.8984 146.364 42.8203L146.763 48.4219C146.232 48.5781 145.583 48.7187 144.817 48.8438C144.067 48.9688 143.224 49.0391 142.286 49.0547C139.239 49.1016 137.091 48.3906 135.841 46.9219C134.607 45.4375 134.224 43.2656 134.692 40.4062L141.255 0.796875Z" fill="#1F1F1F"/>
<path d="M169.453 12.7969L168.539 18.4219H148.875L149.789 12.7969H169.453ZM156.469 4.17188H163.477L157.805 38.2266C157.586 39.5859 157.625 40.6094 157.922 41.2969C158.219 41.9688 158.672 42.4297 159.281 42.6797C159.906 42.9141 160.602 43.0312 161.367 43.0312C161.93 43.0312 162.422 42.9922 162.844 42.9141C163.266 42.8359 163.602 42.7734 163.852 42.7266L164.227 48.5156C163.758 48.6719 163.125 48.8281 162.328 48.9844C161.547 49.1563 160.594 49.25 159.469 49.2656C157.625 49.2969 155.961 48.9688 154.477 48.2812C152.992 47.5781 151.883 46.5156 151.149 45.0938C150.414 43.6562 150.235 41.8516 150.61 39.6797L156.469 4.17188Z" fill="#1F1F1F"/>
<path d="M176.968 49.5938C174.687 49.5938 172.695 49.1719 170.991 48.3281C169.288 47.4687 168.031 46.2266 167.218 44.6016C166.406 42.9766 166.195 40.9844 166.585 38.625C166.929 36.5938 167.601 34.9219 168.601 33.6094C169.616 32.2969 170.851 31.2578 172.304 30.4922C173.757 29.7109 175.335 29.125 177.038 28.7344C178.741 28.3437 180.46 28.0547 182.195 27.8672C184.382 27.6172 186.156 27.4063 187.515 27.2344C188.89 27.0625 189.921 26.7969 190.609 26.4375C191.296 26.0625 191.71 25.4531 191.851 24.6094V24.4453C192.179 22.4141 191.882 20.8359 190.96 19.7109C190.054 18.5703 188.476 18 186.226 18C183.882 18 181.913 18.5156 180.32 19.5469C178.741 20.5781 177.577 21.7344 176.827 23.0156L170.546 21.5156C171.671 19.3281 173.101 17.5625 174.835 16.2188C176.585 14.8594 178.499 13.875 180.577 13.2656C182.656 12.6406 184.781 12.3281 186.952 12.3281C188.39 12.3281 189.882 12.5 191.429 12.8438C192.976 13.1719 194.382 13.7813 195.648 14.6719C196.929 15.5625 197.882 16.8359 198.507 18.4922C199.132 20.1328 199.226 22.2656 198.788 24.8906L194.827 48.7969H187.984L188.827 43.875H188.546C187.952 44.7813 187.124 45.6719 186.062 46.5469C185.015 47.4219 183.734 48.1484 182.218 48.7266C180.702 49.3047 178.952 49.5938 176.968 49.5938ZM179.359 43.9688C181.312 43.9688 183.038 43.5859 184.538 42.8203C186.054 42.0547 187.281 41.0547 188.218 39.8203C189.156 38.5703 189.741 37.2344 189.976 35.8125L190.749 31.1719C190.452 31.4219 189.929 31.6484 189.179 31.8516C188.445 32.0547 187.616 32.2344 186.695 32.3906C185.773 32.5469 184.866 32.6797 183.976 32.7891C183.101 32.8984 182.374 33 181.796 33.0938C180.421 33.2656 179.132 33.5547 177.929 33.9609C176.741 34.3672 175.749 34.9531 174.952 35.7188C174.156 36.4688 173.656 37.4688 173.452 38.7188C173.171 40.4531 173.585 41.7656 174.695 42.6562C175.82 43.5312 177.374 43.9688 179.359 43.9688Z" fill="#1F1F1F"/>
</svg>
